<svg id="Layer_1" data-name="Layer 1" xmlns="http://www.w3.org/2000/svg" viewBox="0 0 32 32"><defs><style>.cls-1{fill:#231f20;}</style></defs><title>comment</title><path class="cls-1" d="M30.9,16a10.9,10.9,0,0,1-4.53,8.71v6.51l-5.87-4.11a12.1,12.1,0,0,1-1.75.15A12.77,12.77,0,0,1,12,25.37l-1.21-.76,1.66,0.08a14,14,0,0,0,3.66-.33l0.08,0,0.08,0a9.78,9.78,0,0,0,4.5.14l0.14,0,2.92,1.75V23.37L24,23.26A8.48,8.48,0,0,0,28.34,16a8.1,8.1,0,0,0-2-5.24l-0.08-.16a10.82,10.82,0,0,0-1.47-3.52L24,5.75l1.37,0.82A11.05,11.05,0,0,1,30.9,16Zm-18,6.92a12.38,12.38,0,0,1-3.36-.5L4.76,25.78V19.91A10.44,10.44,0,0,1,1.06,12c0-6,5.3-10.93,11.82-10.93S24.69,6,24.69,12,19.39,22.94,12.88,22.94ZM9.11,19.69l0.17,0.07a10.09,10.09,0,0,0,3.6.66c5.13,0,9.31-3.78,9.31-8.42S18,3.57,12.88,3.57,3.57,7.35,3.57,12a8.11,8.11,0,0,0,3.6,6.6l0.16,0.11v2.05Z"/></svg>