<svg id="Layer_1" data-name="Layer 1" xmlns="http://www.w3.org/2000/svg" viewBox="0 0 32 32"><defs><style>.cls-1{fill:#231f20;}</style></defs><title>chat</title><path class="cls-1" d="M30.9,16a10.9,10.9,0,0,1-4.53,8.71v6.51l-5.87-4.11a12.1,12.1,0,0,1-1.75.15A12.77,12.77,0,0,1,12,25.37l-1.15-.72a15.43,15.43,0,0,0,1.65.1,15.42,15.42,0,0,0,1.6-.09c6.92-.72,12.32-6,12.32-12.5a11.41,11.41,0,0,0-.13-1.62,11.67,11.67,0,0,0-1.53-4.33l0.59,0.35A11.05,11.05,0,0,1,30.9,16Zm-6.21-4c0-6-5.3-10.93-11.82-10.93-0.25,0-.5,0-0.75,0C6,1.47,1.06,6.21,1.06,12a10.44,10.44,0,0,0,3.7,7.91v5.86l2.69-1.89,2.07-1.45a12.38,12.38,0,0,0,3.36.5C19.39,22.94,24.69,18,24.69,12Z"/></svg>