<svg id="Layer_1" data-name="Layer 1" xmlns="http://www.w3.org/2000/svg" viewBox="0 0 32 32"><title>email</title><style>#email{fill:#8560A9}</style><path id="email" d="M30.33,8.36a2.68,2.68,0,0,0,0-.32l0-.09L29.77,8h0l0.49-.12,0-.11A4.42,4.42,0,0,0,30,7.1a4,4,0,0,0-.35-0.64,3.87,3.87,0,0,0-3.22-1.71H5.53A3.87,3.87,0,0,0,2.32,6.48a4,4,0,0,0-.37.71,3.9,3.9,0,0,0-.21.71L2.24,8,1.72,8a2.56,2.56,0,0,0-.05.37v16a3.89,3.89,0,0,0,3.88,3.88h20.9a3.89,3.89,0,0,0,3.88-3.88v-16ZM27.6,9.5v14a2,2,0,0,1-2,2H6.41a2,2,0,0,1-2-2V9.5A2,2,0,0,1,4.47,9l10.45,8.37L15,17.47a1.53,1.53,0,0,0,.84.37h0.19A1.32,1.32,0,0,0,17,17.47L27.53,9A1.94,1.94,0,0,1,27.6,9.5ZM16,14.78L6.91,7.48H25.09Z"/></svg>
