<?xml version="1.0" encoding="utf-8"?>
<!-- Generator: Adobe Illustrator 19.2.1, SVG Export Plug-In . SVG Version: 6.00 Build 0)  -->
<svg version="1.1" id="Layer_1" xmlns="http://www.w3.org/2000/svg" xmlns:xlink="http://www.w3.org/1999/xlink" x="0px" y="0px"
	 viewBox="0 0 32 32" style="enable-background:new 0 0 32 32;" xml:space="preserve">
<path id="Shape_2_" d="M22,4c-2.3,0-4.5,1.1-6,2.8C14.5,5.1,12.3,4,10,4c-4.1,0-7.3,3.2-7.3,7.3c0,5,4.5,9.1,11.4,15.4l1.9,1.7
	l1.9-1.8c6.9-6.2,11.4-10.3,11.4-15.4C29.3,7.2,26.1,4,22,4L22,4z M16.1,24.7L16,24.9l-0.1-0.1C9.5,19,5.3,15.2,5.3,11.3
	c0-2.7,2-4.7,4.7-4.7c2.1,0,4.1,1.3,4.8,3.1h2.5C17.9,8,19.9,6.7,22,6.7c2.7,0,4.7,2,4.7,4.7C26.7,15.2,22.5,19,16.1,24.7L16.1,24.7
	z"/>
</svg>
