<svg id="Layer_1" data-name="Layer 1" xmlns="http://www.w3.org/2000/svg" viewBox="0 0 32 32"><title>past</title><path d="M0.72,13.52c-1.17,1.11-.87,3.51.67,5.36s3.74,2.44,4.91,1.33,0.87-3.51-.67-5.35S1.89,12.41.72,13.52Z"/><path d="M26.34,14.44c-1.38,2-1.46,4.41-.2,5.4S29.54,20,30.91,18s1.46-4.41.2-5.4S27.71,12.45,26.34,14.44Z"/><path d="M12.27,14c2.06-.51,3.14-3.67,2.4-7s-3-5.71-5.06-5.2S6.48,5.39,7.21,8.77,10.22,14.48,12.27,14Z"/><path d="M22.62,1.72c-2.06-.51-4.32,1.82-5.06,5.2s0.34,6.54,2.4,7,4.32-1.82,5.06-5.2S24.68,2.23,22.62,1.72Z"/><path d="M16,16.83c-4.91,0-8.6,8-8.6,10.67,0,6.52,3.69-.21,8.6-0.21s8.6,6.73,8.6.21C24.6,24.86,20.92,16.83,16,16.83Z"/></svg>