<?xml version="1.0" encoding="utf-8"?>
<!-- Generator: Adobe Illustrator 20.0.0, SVG Export Plug-In . SVG Version: 6.00 Build 0)  -->
<svg version="1.1" id="Layer_1" xmlns="http://www.w3.org/2000/svg" xmlns:xlink="http://www.w3.org/1999/xlink" x="0px" y="0px"
	 viewBox="0 0 32 32" style="enable-background:new 0 0 32 32;" xml:space="preserve">
<path d="M9,30.3c-0.3,0-0.6-0.1-0.8-0.2c-1-0.6-1.2-2.1-1.2-3.4c0-2.7,3.6-10.9,9-10.9c5.4,0,9,8.2,9,10.9c0,1.4-0.1,2.9-1.2,3.4
	c-1.1,0.6-2.2-0.1-3.5-0.9c-1.2-0.8-2.7-1.7-4.3-1.7s-3.1,0.9-4.3,1.7C10.7,29.8,9.8,30.3,9,30.3z M16,25.5c2.1,0,4,1.2,5.4,2
	c0.5,0.3,1.1,0.7,1.5,0.8c0.1-0.2,0.2-0.6,0.2-1.6c0-2.1-3.2-8.9-7-8.9c-3.8,0-7,6.8-7,8.9c0,1,0.1,1.4,0.2,1.6
	c0.3-0.1,1-0.5,1.5-0.8C12,26.7,13.9,25.5,16,25.5z M5.6,21.4c-0.1,0-0.1,0-0.2,0c-1.3-0.1-2.7-0.9-3.7-2.1c-1.8-2.2-2-4.9-0.5-6.3
	c0.6-0.6,1.4-0.8,2.3-0.8c1.3,0.1,2.7,0.9,3.8,2.1c1.8,2.1,2,4.9,0.5,6.3C7.1,21.2,6.4,21.4,5.6,21.4z M3.2,14.2
	c-0.3,0-0.5,0.1-0.7,0.2l0,0C1.9,15,2,16.6,3.2,18c0.7,0.8,1.6,1.3,2.3,1.4c0.3,0,0.6-0.1,0.8-0.2c0.6-0.6,0.4-2.2-0.7-3.6
	C4.9,14.8,4,14.2,3.2,14.2C3.2,14.2,3.2,14.2,3.2,14.2z M26.6,21c-0.7,0-1.3-0.2-1.8-0.6c-1.6-1.3-1.6-4.1,0-6.4
	c0.9-1.4,2.3-2.3,3.6-2.5c0.9-0.1,1.7,0.1,2.3,0.6c1.6,1.3,1.6,4.1,0,6.4c-0.9,1.4-2.3,2.3-3.6,2.5C26.9,20.9,26.8,21,26.6,21z
	 M28.9,13.5c-0.1,0-0.1,0-0.2,0c-0.8,0.1-1.6,0.7-2.2,1.6v0c-1,1.5-1,3.2-0.4,3.7c0.2,0.2,0.5,0.2,0.8,0.2c0.8-0.1,1.6-0.7,2.2-1.6
	c1-1.5,1-3.2,0.4-3.7C29.3,13.5,29.1,13.5,28.9,13.5z M12,15.2c-0.7,0-1.4-0.2-2-0.6c-1.5-0.9-2.7-2.8-3.2-5.1
	c-0.8-3.7,0.5-7.1,3-7.7c0.9-0.2,1.8,0,2.7,0.5c1.5,0.9,2.7,2.8,3.2,5.1c0.8,3.7-0.5,7.1-3,7.7l0,0C12.5,15.2,12.3,15.2,12,15.2z
	 M10.6,3.7c-0.1,0-0.2,0-0.3,0C9.1,4.1,8.2,6.3,8.8,9.1c0.4,1.7,1.2,3.2,2.3,3.8c0.4,0.3,0.9,0.4,1.2,0.3c1.2-0.3,2.1-2.6,1.5-5.3
	c-0.4-1.7-1.3-3.2-2.3-3.8C11.2,3.8,10.9,3.7,10.6,3.7z M20.2,15.1c-0.2,0-0.5,0-0.7-0.1c-2.5-0.6-3.8-3.9-3-7.7
	c0.5-2.3,1.7-4.2,3.2-5.1c0.9-0.6,1.8-0.7,2.8-0.5l0,0c2.5,0.6,3.8,4,3,7.7c-0.5,2.2-1.7,4.1-3.1,5C21.6,14.9,20.9,15.1,20.2,15.1z
	 M21.6,3.7c-0.3,0-0.6,0.1-0.9,0.3c-1,0.6-1.9,2.1-2.3,3.8c-0.6,2.8,0.3,5.1,1.5,5.3c0.4,0.1,0.8,0,1.3-0.3c1-0.6,1.9-2.1,2.2-3.8
	c0.6-2.8-0.3-5-1.5-5.3l0,0C21.8,3.7,21.7,3.7,21.6,3.7z"/>
</svg>
