<svg id="Layer_1" data-name="Layer 1" xmlns="http://www.w3.org/2000/svg" viewBox="0 0 32 32"><title>people-outline</title><path d="M22,17.33a16,16,0,0,0-6,1.33,15.73,15.73,0,0,0-6-1.33c-2.89,0-8.67,1.44-8.67,4.33v3.67H30.67V21.67C30.67,18.77,24.89,17.33,22,17.33Zm-5.33,6H3.33V21.67c0-.72,3.41-2.33,6.67-2.33s6.67,1.61,6.67,2.33v1.67Zm12,0h-10V21.67A2.43,2.43,0,0,0,18,20a12.86,12.86,0,0,1,4-.71c3.25,0,6.67,1.61,6.67,2.33v1.67ZM10,16a4.67,4.67,0,1,0-4.67-4.67A4.67,4.67,0,0,0,10,16Zm0-7.33a2.67,2.67,0,1,1-2.67,2.67A2.67,2.67,0,0,1,10,8.67ZM22,16a4.67,4.67,0,1,0-4.67-4.67A4.67,4.67,0,0,0,22,16Zm0-7.33a2.67,2.67,0,1,1-2.67,2.67A2.67,2.67,0,0,1,22,8.67Z"/></svg>