<?xml version="1.0" encoding="utf-8"?>
<!-- Generator: Adobe Illustrator 19.2.1, SVG Export Plug-In . SVG Version: 6.00 Build 0)  -->
<svg version="1.1" id="Layer_1" xmlns="http://www.w3.org/2000/svg" xmlns:xlink="http://www.w3.org/1999/xlink" x="0px" y="0px"
	 viewBox="0 0 32 32" style="enable-background:new 0 0 32 32;" xml:space="preserve">
<style type="text/css">
	.st0{fill:#8560A9}
</style>
<path class="st0" d="M21.2,21.6l-1.9,1.9l0,0l-5.6-5.5V7.6h2.7v9.2L21.2,21.6z M30.2,16.3c0,7.8-6.3,14.2-14.2,14.2
	S1.8,24.2,1.8,16.3C1.8,8.5,8.2,2.2,16,2.1c0,0,0,0,0,0C23.8,2.2,30.2,8.5,30.2,16.3z M27.5,16.3C27.5,10,22.3,4.9,16,4.9
	C9.7,4.9,4.5,10,4.5,16.3c0,6.3,5.1,11.5,11.5,11.5C22.3,27.8,27.5,22.7,27.5,16.3z"/>
</svg>
